<svg width="59" height="62" viewBox="0 0 59 62" fill="none" xmlns="http://www.w3.org/2000/svg">
<path fill-rule="evenodd" clip-rule="evenodd" d="M29.4133 59.481C26.9428 60.9141 24.244 61.7028 21.4174 61.7028C9.58872 61.7028 -0.00030148 47.8902 -0.00030148 30.8514C-0.00030148 13.8127 9.58872 0 21.4174 0C26.1476 0 30.5197 2.20888 34.0636 5.94964C31.3303 10.2967 29.4297 19.8058 29.4134 30.8514H42.8351C42.8351 41.1448 39.3355 50.2609 33.9567 55.8654C32.5595 57.3211 31.0356 58.54 29.4133 59.481ZM24.87 55.8654C23.8248 57.5929 22.6539 58.5606 21.4174 58.5606C17.0014 58.5606 13.4214 46.2187 13.4214 30.9942C13.4214 30.9466 13.4215 30.899 13.4216 30.8514C13.4439 15.6927 17.0152 3.42794 21.4174 3.42794C25.8334 3.42794 29.4133 15.7698 29.4133 30.9942C29.4133 41.9558 27.5575 51.4231 24.87 55.8654Z" fill="#00EDDA"/>
<path fill-rule="evenodd" clip-rule="evenodd" d="M21.4174 61.7028C9.58872 61.7028 -0.00030148 47.8902 -0.00030148 30.8514H13.4216C13.4215 30.899 13.4214 30.9466 13.4214 30.9942C13.4214 46.2187 17.0014 58.5606 21.4174 58.5606C22.6539 58.5606 23.8248 57.5929 24.87 55.8654C27.5575 51.4231 29.4133 41.9558 29.4133 30.9942C29.4133 30.9466 29.4134 30.899 29.4134 30.8514H42.8351C42.8351 41.1448 39.3355 50.2609 33.9567 55.8654C32.5595 57.3211 31.0356 58.54 29.4133 59.481C26.9428 60.9141 24.244 61.7028 21.4174 61.7028ZM29.4134 30.8514H15.9916C15.9916 13.8127 25.5806 0 37.4093 0C49.2379 0 58.8269 13.8127 58.8269 30.8514H45.4051C45.3828 15.6927 41.8115 3.42794 37.4093 3.42794C36.2148 3.42794 35.0815 4.3309 34.0636 5.94964C31.3303 10.2967 29.4297 19.8058 29.4134 30.8514Z" fill="#00EDDA"/>
</svg>
